<?xml version="1.0" encoding="UTF-8"?>
<svg id="Calque_2" data-name="Calque 2" xmlns="http://www.w3.org/2000/svg" viewBox="0 0 54.25 68.15">
  <defs>
    <style>
      .cls-1 {
        fill: #b2b2b2;
      }

      .cls-2 {
        fill: #b23630;
      }

      .cls-3 {
        fill: #fff;
        stroke: #1d1d1b;
        stroke-miterlimit: 10;
        stroke-width: .15px;
      }

      .cls-4 {
        fill: #e30613;
      }

      .cls-5 {
        fill: #7c7c7b;
      }

      .cls-6 {
        fill: #7d7d7a;
      }

      .cls-7 {
        fill: none;
        stroke: #945e36;
        stroke-width: .12px;
      }

      .cls-8 {
        fill: #1d1d1b;
      }
    </style>
  </defs>
  <g id="Calque_1-2" data-name="Calque 1">
    <g>
      <path class="cls-3" d="m4.11.08C1.88.08.08,2.05.08,4.49v59.17c0,2.44,1.81,4.41,4.03,4.41h46.03c2.23,0,4.03-1.98,4.03-4.41V4.49c0-2.44-1.81-4.41-4.03-4.41H4.11Z"/>
      <g>
        <path class="cls-7" d="m42.7,45.28s1.65,1.91-.38,2.32m0,2.45s2.41.35.34,2.42m2.22-2.36s-2.1.23-.4,2.36m-.56-6.27s-.21,1.34.96,1.34m0,1.27h2.59m-5.15,0h-2.59m7.74-1.74h-2.53v3.52h2.53m-7.74-3.52h2.53v3.52h-2.53m.69-5.28c-.36,0-.66.3-.66.68v5.79c0,.37.3.68.66.68h6.37c.36,0,.66-.3.66-.68v-5.79c0-.37-.3-.68-.66-.68h-6.37Zm.23-.53c-.73,0-1.32.61-1.32,1.35v5.38c0,.75.59,1.35,1.32,1.35h5.9c.73,0,1.32-.61,1.32-1.35v-5.38c0-.75-.59-1.35-1.32-1.35h-5.9Z"/>
        <path class="cls-2" d="m13.11,51.96c.81-.69,1.53-1.48,2.27-2.25.2-.24,0-.59-.25-.59-.05,0-.12.02-.17.05-.05.03-.07.07-.1.1-.99,1.05-1.98,2.19-3.22,2.89-.42.26-.99.5-1.5.5-.69,0-1.16-.48-1.38-1.14-.19-.53-.19-1.15-.1-1.7.3-1.84,1.41-4.72,3.28-5.47.22-.09.45-.14.69-.14s.45.05.66.14c.42.21.72.64,1.07.96.12.12.27.17.4.17.18,0,.35-.09.39-.29.03-.17-.1-.36-.29-.4-.03,0-.07,0-.1-.03-.4-.43-.82-.9-1.36-1.1-.23-.09-.5-.14-.77-.14-2.52,0-4.11,3.63-4.55,5.77-.18.88-.22,1.84.13,2.67.34.77,1.07,1.39,1.93,1.39,1.04,0,2.2-.74,2.97-1.39m6.58-2.03c.15-.12.87-.64,1.06-.71.18.22.29.52.5.69.18.15.42.24.64.29.42.07.89-.03,1.26-.24.08-.03.42-.22.49-.31.17-.22.02-.57-.27-.57-.13,0-.57.31-.71.36-.13.05-.29.09-.45.09-.25,0-.52-.09-.65-.28-.1-.17-.19-.36-.32-.52-.08-.1-.2-.17-.34-.21-.29-.05-.57.12-.81.28-.84.53-1.61,1.21-2.5,1.64-.27.14-.57.24-.87.24-.03-.02-.1,0-.1-.03,0-.1.12-.5.15-.6.42-1.03,1.76-2.82,2.99-2.82.08,0,.17,0,.24.03.22.09.35.31.54.41.07.03.12.05.19.05.29,0,.47-.41.18-.62-.18-.14-.35-.33-.57-.43-.19-.1-.39-.12-.61-.12-1.19,0-2.54,1.34-3.12,2.31-.3.52-.87,1.64-.57,2.15.15.28.4.36.71.36.92,0,2.23-.93,2.96-1.45m5.53.19c.18-.16.3-.91.37-1.15.17-.6.62-1.81,1.24-2.08.13-.05.29-.07.42-.07.08,0,.17,0,.25-.02.29-.12.29-.53,0-.65-.12-.03-.52,0-.64.02-.91.17-1.51,1.34-1.78,2.15-.08-.41-.18-.83-.29-1.24-.03-.12-.03-.26-.05-.4-.03-.19-.18-.28-.34-.28s-.32.12-.34.34c0,.29.1.57.17.86.13.53.22,1.08.3,1.65.03.22.05.45.12.65.05.17.2.29.35.29.07,0,.13-.03.2-.09m5.95,4.27c0-.07-.03-.16-.05-.22-.27-.83-.34-1.7-.37-2.58-.07-1.15-.05-2.31-.02-3.48.71-.03,1.39-.03,2.1-.05.47-.02.47-.71,0-.69-.69.02-1.38.02-2.08.05.02-.43.13-2.93.13-3.36,0-.28-.08-.76-.44-.76-.25,0-.4.26-.29.52.08.14.05.33.05.5-.02.4-.12,2.75-.13,3.13-.18.02-1.34.14-1.55.14-.07,0-.13-.02-.2,0-.35.07-.35.62,0,.67.27.05,1.48-.1,1.73-.12-.03,1.14-.05,2.27.02,3.41.02.53.15,2.63.5,3.06.07.09.17.12.25.12.17,0,.34-.14.34-.34m5.9-3.8c.24-.28-.05-.67-.37-.55-.34.14-.71.19-1.09.19-.35,0-.74-.05-1.04-.28-.13-.12-.23-.28-.27-.47-.02-.14.02-.29.07-.45.82.07,1.7-.29,2.37-.77.24-.17.44-.45.5-.74.08-.38-.15-.77-.52-.88-.1-.03-.2-.03-.3-.03-.87,0-1.83.83-2.3,1.51-.32-.03-.5.33-.35.64-.13.33-.18.72-.07,1.07.25.77,1.13,1.08,1.86,1.08.35,0,1.31-.07,1.51-.33m-.89-3.25c.1-.03.32-.09.4,0-.02.21-.24.36-.4.48-.42.26-.91.47-1.39.53.37-.45.84-.86,1.39-1.02"/>
        <path class="cls-6" d="m12.56,57.56c-.06-.18-.16-.33-.28-.46-.12-.13-.26-.24-.43-.32-.17-.09-.36-.15-.57-.19-.14-.03-.28-.04-.42-.05-.14,0-.3-.01-.48-.01l-1.46.03c-.15,0-.28.05-.38.13-.1.08-.17.21-.19.38l-1.09,6.17s0,.07.01.1c.02.03.05.05.1.06.05.02.11.03.2.04.08,0,.19,0,.32,0s.24,0,.33-.02c.09-.01.16-.02.22-.04.06-.02.1-.04.13-.07.03-.03.04-.06.05-.1l.39-2.19h.7c.39-.02.74-.07,1.03-.15.29-.09.54-.2.76-.35.22-.15.4-.31.55-.5.15-.19.27-.38.36-.59.09-.21.16-.42.2-.63.04-.22.06-.42.05-.62,0-.22-.04-.43-.1-.6m-1.35,1.13c-.02.12-.05.24-.09.35-.04.12-.1.23-.17.34-.07.11-.16.2-.26.28-.1.08-.22.14-.36.19-.14.05-.3.08-.5.08h-.62s.4-2.31.4-2.31h.6c.11-.01.21-.01.3,0,.09,0,.17.02.24.05.17.05.29.13.37.25.08.12.12.27.13.44,0,.11,0,.22-.03.34m5.28-.49s-.05-.03-.09-.05c-.04-.02-.08-.03-.12-.04-.05,0-.1-.02-.15-.02-.05,0-.11,0-.16,0-.13,0-.26.03-.39.09-.13.06-.25.13-.37.23-.12.1-.23.21-.34.34-.11.13-.2.27-.28.42l.13-.75s0-.07,0-.09c-.01-.03-.04-.05-.08-.06-.04-.02-.09-.03-.16-.03-.07,0-.15-.01-.26,0s-.19,0-.27.02c-.07.01-.13.02-.18.04-.05.02-.08.04-.1.06-.02.03-.04.06-.04.09l-.84,4.73s0,.07.01.09c.01.03.04.05.09.06.05.02.11.03.19.04.08,0,.19.01.31,0s.23,0,.31-.02c.09-.01.15-.02.21-.04.05-.02.09-.04.12-.07.03-.03.04-.06.05-.09l.38-2.12c.04-.22.1-.43.19-.63.09-.2.2-.38.31-.53.12-.15.24-.27.37-.37.13-.09.25-.14.37-.14.06,0,.11,0,.16.02.04.01.09.02.12.04.04.01.07.02.1.03s.06.02.09.02c.04,0,.07-.03.1-.07.03-.05.06-.11.08-.19.02-.08.05-.16.07-.25.02-.09.03-.18.05-.26.01-.08.02-.16.03-.22,0-.06,0-.11,0-.13,0-.05-.01-.08-.03-.1m4.63.64c-.07-.16-.18-.3-.33-.42-.15-.12-.33-.22-.56-.29-.23-.07-.5-.11-.81-.1-.36,0-.68.07-.96.18-.28.11-.53.26-.74.45-.21.18-.39.4-.54.64-.15.24-.27.49-.36.76-.09.26-.16.53-.2.8-.04.27-.06.52-.05.76,0,.31.05.57.14.79.09.22.21.4.38.54.17.14.37.25.62.31.25.07.53.1.86.09.2,0,.39-.02.59-.04.19-.03.37-.06.52-.1.15-.04.29-.08.39-.12.11-.04.18-.09.22-.13.04-.04.07-.09.1-.15.03-.07.05-.14.07-.22.02-.08.03-.15.04-.23,0-.08.01-.15.01-.21,0-.05,0-.09-.03-.12-.02-.02-.05-.04-.09-.04s-.11.02-.19.05c-.09.03-.2.07-.34.12-.13.04-.29.08-.47.12-.18.04-.38.06-.61.06-.32,0-.55-.06-.7-.2-.15-.14-.22-.36-.23-.64,0-.07,0-.14,0-.22,0-.08.01-.16.03-.24h.47c.5-.02.93-.06,1.29-.15.36-.08.66-.2.89-.35.23-.15.4-.33.51-.53.11-.2.16-.43.16-.69,0-.17-.04-.33-.11-.49m-1.23.89c-.05.09-.13.16-.24.23-.11.07-.26.12-.45.16-.18.04-.41.06-.69.07h-.43c.04-.16.1-.32.17-.46.07-.15.16-.28.26-.38.1-.11.22-.2.35-.26.13-.07.29-.1.46-.1.21,0,.36.04.47.13.11.09.17.21.17.35,0,.1-.02.19-.07.28m1.14-3.67s.05-.08.05-.11c0-.03-.01-.06-.05-.09-.04-.03-.1-.05-.19-.06-.09-.01-.21-.02-.37-.02-.11,0-.21,0-.29.02s-.14.02-.2.04c-.05.02-.1.04-.13.07-.03.03-.06.06-.09.1l-.76,1.22s-.05.09-.06.12c0,.03,0,.06.03.09.03.02.08.04.14.05.07,0,.16.01.28.01.1,0,.18,0,.25-.01.06,0,.12-.02.16-.03.04-.02.08-.03.11-.06.03-.02.05-.05.08-.09l1.03-1.24Zm5.59,2.93c-.05-.22-.14-.41-.25-.57-.11-.16-.26-.29-.45-.37-.18-.09-.4-.13-.67-.13-.2,0-.39.04-.58.11s-.36.16-.51.26c-.15.11-.29.22-.4.35-.11.13-.19.25-.24.37l.13-.77s0-.07-.01-.09c-.01-.03-.04-.05-.08-.06-.04-.02-.09-.03-.16-.03-.07,0-.15-.01-.26,0-.21,0-.36.02-.46.06-.09.03-.14.09-.16.16l-1.17,6.6s0,.07.01.09c.01.03.04.05.09.07.05.02.11.03.19.04.08,0,.18.01.31.01s.23,0,.32-.02c.09-.01.15-.03.21-.05.05-.02.09-.04.12-.07.03-.03.04-.06.05-.1l.37-2.13c.06.08.14.15.22.22.08.07.18.13.28.17.1.05.21.09.33.11.12.03.25.04.39.04.3,0,.57-.06.81-.18.24-.11.45-.26.64-.45.18-.19.34-.4.47-.64.13-.24.24-.5.32-.76.08-.26.14-.53.18-.79.04-.26.05-.51.05-.74,0-.25-.03-.48-.09-.7m-1.27,1.32c-.02.17-.05.34-.09.51-.04.17-.1.33-.17.49-.07.16-.15.29-.24.41-.09.12-.2.22-.31.29-.12.07-.25.11-.39.11-.19,0-.36-.04-.51-.14-.15-.09-.28-.24-.41-.43l.13-.72c.04-.24.11-.47.21-.69.1-.21.22-.4.36-.57.13-.16.28-.29.43-.39.15-.1.31-.15.46-.15.1,0,.18.02.25.05.07.03.12.08.17.15.04.07.08.15.1.25.02.1.03.21.03.33,0,.15,0,.31-.03.48m7.02-2.22s0-.07-.01-.09c-.01-.03-.04-.05-.08-.06-.04-.02-.09-.03-.16-.03-.07,0-.15-.01-.26,0-.21,0-.36.02-.46.06-.09.03-.15.09-.16.16l-.08.42c-.17-.23-.36-.4-.59-.52-.22-.12-.48-.17-.76-.17-.31,0-.58.07-.82.18-.24.11-.45.27-.64.46-.18.19-.34.41-.47.65-.13.24-.24.5-.32.76-.08.26-.14.52-.18.79-.04.26-.05.51-.05.73,0,.24.03.46.08.67.05.21.13.4.24.57.11.17.26.3.44.39.18.1.41.14.69.14.2,0,.39-.04.58-.11.19-.07.36-.16.51-.26.15-.1.29-.22.4-.35s.19-.25.24-.36l-.13.76s0,.07,0,.1c.01.03.04.05.08.06.04.01.1.03.16.03.07,0,.15,0,.26,0,.21,0,.36-.02.45-.06.09-.03.15-.09.16-.16l.84-4.73Zm-1.67,2.16c-.04.24-.12.47-.22.69-.1.22-.22.4-.35.57-.13.16-.28.29-.44.39-.16.1-.31.15-.46.15-.11,0-.19-.02-.26-.06-.07-.04-.13-.1-.17-.17-.04-.07-.07-.16-.09-.25-.02-.09-.03-.2-.03-.3,0-.14,0-.3.03-.47.02-.17.05-.34.09-.51.04-.17.1-.33.17-.49.07-.16.15-.29.24-.41.09-.12.2-.22.31-.29.12-.07.25-.11.39-.11.19,0,.36.04.51.14.15.09.28.24.41.43l-.13.71Zm6.86-2.41c-.08-.03-.23-.04-.45-.03-.15,0-.27,0-.36.02s-.17.02-.22.04c-.06.02-.1.04-.12.07-.02.03-.04.06-.05.09-.08.29-.16.58-.26.87-.09.29-.2.57-.31.86-.11.28-.24.56-.37.83-.14.27-.29.54-.45.81h-.01s-.53-3.29-.53-3.29c0-.05-.02-.1-.04-.13-.02-.03-.04-.06-.09-.08-.04-.02-.1-.03-.18-.03-.08,0-.19,0-.33,0-.13,0-.24,0-.32.02-.09.01-.16.03-.21.05-.05.02-.09.05-.11.09-.02.04-.03.09-.03.15,0,.04,0,.08.01.13s.01.1.02.14l.84,4.52-1.14,1.6c-.04.06-.07.11-.07.15,0,.04.02.08.06.1.04.03.11.05.2.06.09.01.21.02.36.01.13,0,.25,0,.34-.02.1-.01.18-.03.25-.05.07-.02.13-.05.17-.08.05-.03.08-.07.11-.11l1.23-1.85c.28-.42.53-.83.75-1.23.22-.39.41-.78.58-1.15s.32-.73.45-1.07c.13-.35.25-.68.36-1.01.02-.06.03-.12.04-.17,0-.06.01-.11.01-.15,0-.07-.04-.12-.13-.15m4.84.63c-.07-.16-.18-.3-.33-.42-.15-.12-.33-.22-.56-.29-.23-.07-.5-.11-.81-.1-.36,0-.68.07-.96.18-.28.11-.53.26-.74.45-.21.18-.39.4-.54.64-.15.24-.27.49-.36.76-.09.26-.16.53-.2.8-.04.27-.06.52-.05.76,0,.31.05.57.14.79.09.22.21.4.38.54.17.14.37.25.62.31.25.07.54.1.86.09.2,0,.39-.02.59-.04.19-.03.36-.06.52-.1.15-.04.29-.08.39-.12.11-.04.18-.09.22-.13.04-.04.07-.09.1-.15.03-.07.05-.14.07-.22.02-.08.03-.15.04-.23,0-.08.01-.15.01-.21,0-.05-.01-.09-.03-.12-.02-.02-.05-.04-.09-.04s-.11.02-.19.05c-.09.03-.2.07-.34.12-.13.04-.29.08-.47.12-.18.04-.38.06-.61.06-.32,0-.55-.06-.7-.2-.15-.14-.22-.36-.23-.64,0-.07,0-.14,0-.22,0-.08.01-.16.03-.24h.47c.5-.02.93-.06,1.29-.15.36-.08.66-.2.89-.35.23-.15.4-.33.51-.53.11-.2.16-.43.16-.69,0-.17-.04-.33-.11-.49m-1.23.89c-.05.09-.13.16-.24.23-.11.07-.26.12-.45.16-.18.04-.41.06-.69.07h-.43c.04-.16.1-.32.17-.46.07-.15.16-.28.26-.38.1-.11.22-.2.35-.26.13-.07.29-.1.46-.1.21,0,.36.04.47.13.11.09.17.21.17.35,0,.1-.02.19-.07.28m1.14-3.67s.05-.08.05-.11c0-.03-.01-.06-.05-.09-.04-.03-.11-.05-.19-.06-.09-.01-.21-.02-.37-.02-.11,0-.21,0-.29.02s-.14.02-.2.04c-.05.02-.1.04-.13.07-.03.03-.06.06-.09.1l-.76,1.22s-.05.09-.06.12c0,.03,0,.06.03.09.03.02.08.04.15.05.07,0,.16.01.28.01.1,0,.18,0,.25-.01.06,0,.12-.02.16-.03.04-.02.08-.03.11-.06.03-.02.05-.05.08-.09l1.03-1.24Zm5.27,2.69c-.07-.16-.18-.3-.33-.42-.15-.12-.33-.22-.56-.29-.23-.07-.5-.11-.81-.1-.36,0-.68.07-.96.18-.28.11-.53.26-.74.45-.21.18-.39.4-.54.64-.15.24-.27.49-.36.76-.09.26-.16.53-.2.8-.04.27-.05.52-.05.76,0,.31.05.57.14.79.09.22.21.4.38.54.17.14.37.25.62.31.25.07.53.1.86.09.2,0,.39-.02.59-.04.19-.03.36-.06.52-.1.15-.04.29-.08.39-.12.11-.04.18-.09.22-.13.04-.04.07-.09.1-.15.03-.07.05-.14.07-.22.02-.08.03-.15.04-.23,0-.08.01-.15.01-.21,0-.05-.01-.09-.03-.12-.02-.02-.05-.04-.09-.04s-.11.02-.19.05c-.09.03-.2.07-.34.12-.13.04-.29.08-.47.12-.18.04-.38.06-.61.06-.32,0-.55-.06-.7-.2-.15-.14-.22-.36-.23-.64,0-.07,0-.14,0-.22,0-.08.01-.16.03-.24h.47c.5-.02.93-.06,1.29-.15.36-.08.66-.2.89-.35.23-.15.4-.33.51-.53.11-.2.16-.43.16-.69,0-.17-.04-.33-.11-.49m-1.23.89c-.05.09-.13.16-.24.23-.11.07-.26.12-.45.16-.18.04-.41.06-.69.07h-.43c.04-.16.1-.32.17-.46.07-.15.16-.28.26-.38.1-.11.22-.2.35-.26.13-.07.29-.1.46-.1.21,0,.36.04.47.13.11.09.17.21.17.35,0,.1-.02.19-.07.28"/>
        <g>
          <path class="cls-8" d="m14.14,20.94c0-7.22,5.77-13.07,12.88-13.07h9.38c-2.63-1.95-5.87-3.1-9.38-3.1-8.81,0-15.95,7.23-15.95,16.17s7.14,16.16,15.95,16.16c3.51,0,6.75-1.15,9.38-3.09h-9.38c-7.12,0-12.88-5.86-12.88-13.07"/>
          <path class="cls-5" d="m39.76,29.55h-12.59c-4.69,0-8.78-2.89-8.78-8.61,0-5.38,3.84-8.62,8.78-8.62h12.56l-2.15-2.71h-10.26c-6.49,0-11.54,4.26-11.54,11.33,0,7.52,5.37,11.32,11.54,11.32h10.33l2.12-2.71Z"/>
          <path class="cls-1" d="m26.7,24.6c-1.58,0-2.58-.77-2.92-2.3h18.83v-2.71h-18.83c.34-1.46,1.28-2.31,2.92-2.31h17.41l-2.15-2.34h-14.95c-3.44,0-6.12,2.26-6.12,6.01,0,3.99,2.85,6,6.12,6h14.99l2.13-2.35h-17.44Z"/>
          <path class="cls-4" d="m46.91,22.9c1.07,0,1.93-.88,1.93-1.96s-.86-1.96-1.93-1.96-1.93.88-1.93,1.96.87,1.96,1.93,1.96"/>
          <path class="cls-4" d="m11.07,20.94c0-8.92,7.13-16.16,15.93-16.17v-.06H8.96v32.45h18.04v-.06c-8.8,0-15.93-7.24-15.93-16.16"/>
        </g>
      </g>
    </g>
  </g>
</svg>