<?xml version="1.0" encoding="UTF-8"?>
<svg id="Calque_2" data-name="Calque 2" xmlns="http://www.w3.org/2000/svg" viewBox="0 0 35.1 44.1">
  <defs>
    <style>
      .cls-1 {
        fill: none;
        stroke: #945e36;
        stroke-width: .08px;
      }

      .cls-2 {
        fill: #b2b2b2;
      }

      .cls-3 {
        fill: #b23630;
      }

      .cls-4 {
        fill: #e30613;
      }

      .cls-5 {
        fill: #7c7c7b;
      }

      .cls-6 {
        fill: #7d7d7a;
      }

      .cls-7 {
        fill: #fff;
        stroke: #1d1d1b;
        stroke-miterlimit: 10;
        stroke-width: .1px;
      }

      .cls-8 {
        fill: #1d1d1b;
      }
    </style>
  </defs>
  <g id="Calque_1-2" data-name="Calque 1">
    <g>
      <path class="cls-7" d="m2.66.05C1.22.05.05,1.33.05,2.91v38.29c0,1.58,1.17,2.86,2.61,2.86h29.78c1.44,0,2.61-1.28,2.61-2.86V2.91c0-1.58-1.17-2.86-2.61-2.86H2.66Z"/>
      <g>
        <path class="cls-1" d="m27.63,29.3s1.07,1.24-.24,1.5m0,1.59s1.56.23.22,1.57m1.43-1.53s-1.36.15-.26,1.53m-.36-4.05s-.14.86.62.86m0,.82h1.68m-3.33,0h-1.68m5.01-1.13h-1.64v2.27h1.64m-5.01-2.27h1.64v2.27h-1.64m.44-3.42c-.24,0-.43.2-.43.44v3.75c0,.24.19.44.43.44h4.12c.24,0,.43-.2.43-.44v-3.75c0-.24-.19-.44-.43-.44h-4.12Zm.15-.35c-.47,0-.85.39-.85.88v3.48c0,.48.38.88.85.88h3.82c.47,0,.85-.39.85-.88v-3.48c0-.48-.38-.88-.85-.88h-3.82Z"/>
        <path class="cls-3" d="m8.48,33.62c.52-.45.99-.96,1.47-1.46.13-.16,0-.38-.16-.38-.03,0-.08.01-.11.03-.03.02-.04.04-.07.07-.64.68-1.28,1.41-2.09,1.87-.27.17-.64.32-.97.32-.45,0-.75-.31-.89-.74-.12-.35-.12-.75-.07-1.1.2-1.19.91-3.05,2.12-3.54.14-.06.29-.09.45-.09s.29.03.42.09c.27.13.47.41.7.62.08.08.17.11.26.11.12,0,.23-.06.25-.19.02-.11-.07-.23-.18-.26-.02,0-.04,0-.06-.02-.26-.28-.53-.58-.88-.71-.15-.06-.33-.09-.5-.09-1.63,0-2.66,2.35-2.95,3.73-.12.57-.14,1.19.09,1.73.22.5.7.9,1.25.9.67,0,1.42-.48,1.92-.9m4.26-1.31c.1-.08.57-.41.68-.46.12.15.18.33.33.45.12.1.27.16.41.19.27.04.58-.02.81-.16.05-.02.27-.14.32-.2.11-.14.01-.37-.17-.37-.09,0-.37.2-.46.23-.09.03-.18.06-.29.06-.16,0-.34-.06-.42-.18-.07-.11-.12-.23-.21-.33-.05-.07-.13-.11-.22-.13-.18-.03-.37.08-.52.18-.54.35-1.04.78-1.62,1.06-.17.09-.37.16-.57.16-.02-.01-.06,0-.06-.02,0-.07.08-.32.1-.39.27-.67,1.14-1.83,1.93-1.83.05,0,.11,0,.15.02.14.06.23.2.35.27.04.02.08.03.12.03.18,0,.3-.27.12-.4-.12-.09-.23-.21-.37-.28-.12-.07-.25-.08-.39-.08-.77,0-1.64.87-2.02,1.49-.2.33-.57,1.06-.37,1.39.1.18.26.23.46.23.6,0,1.45-.6,1.91-.94m3.58.12c.12-.1.2-.59.24-.75.11-.39.4-1.17.8-1.35.09-.03.18-.04.27-.04.05,0,.11,0,.16-.01.18-.08.18-.35,0-.42-.08-.02-.34,0-.41.01-.59.11-.98.87-1.15,1.39-.05-.27-.12-.53-.18-.8-.02-.08-.02-.17-.03-.26-.02-.12-.12-.18-.22-.18s-.21.08-.22.22c0,.19.07.37.11.56.09.35.14.7.2,1.07.02.14.03.29.08.42.03.11.13.19.23.19.04,0,.09-.02.13-.06m3.85,2.76s-.02-.1-.03-.15c-.17-.53-.22-1.1-.24-1.67-.04-.75-.03-1.49-.01-2.25.46-.02.9-.02,1.36-.03.3-.01.3-.46,0-.45-.45.01-.89.01-1.35.03.01-.28.09-1.89.09-2.17,0-.18-.05-.49-.28-.49-.16,0-.26.17-.18.33.05.09.03.21.03.32-.01.26-.08,1.78-.09,2.03-.12.01-.87.09-1,.09-.04,0-.09-.01-.13,0-.23.04-.23.4,0,.43.17.03.96-.07,1.12-.08-.02.74-.03,1.47.01,2.21.01.35.1,1.7.33,1.98.04.06.11.08.16.08.11,0,.22-.09.22-.22m3.81-2.46c.15-.18-.03-.43-.24-.36-.22.09-.46.12-.71.12-.23,0-.48-.03-.67-.18-.09-.08-.15-.18-.17-.3-.01-.09.01-.19.04-.29.53.04,1.1-.19,1.53-.5.15-.11.28-.29.33-.48.05-.25-.1-.5-.34-.57-.07-.02-.13-.02-.2-.02-.56,0-1.18.53-1.49.98-.21-.02-.33.21-.23.41-.09.21-.12.47-.04.69.16.5.73.7,1.21.7.23,0,.85-.04.98-.21m-.58-2.11c.07-.02.21-.06.26,0-.01.13-.15.23-.26.31-.27.17-.59.3-.9.35.24-.29.54-.56.9-.66"/>
        <path class="cls-6" d="m8.13,37.25c-.04-.11-.1-.21-.18-.3-.08-.08-.17-.15-.28-.21-.11-.06-.23-.1-.37-.12-.09-.02-.18-.03-.27-.03-.09,0-.19,0-.31,0l-.94.02c-.1,0-.18.03-.25.08-.07.05-.11.14-.13.24l-.71,3.99s0,.05,0,.06c.01.02.03.03.06.04.03.01.07.02.13.02.05,0,.12,0,.2,0s.16,0,.21-.01c.06,0,.11-.02.14-.03.04-.01.06-.03.08-.05.02-.02.03-.04.03-.06l.25-1.42h.45c.26-.01.48-.04.67-.1.19-.06.35-.13.49-.23.14-.09.26-.2.36-.32.1-.12.18-.25.24-.38.06-.13.1-.27.13-.41.03-.14.04-.27.04-.4,0-.15-.03-.28-.07-.39m-.87.73c-.01.08-.03.15-.06.23-.03.08-.07.15-.11.22-.05.07-.1.13-.17.18-.07.05-.15.09-.24.13-.09.03-.2.05-.32.05h-.4s.26-1.5.26-1.5h.39c.07,0,.14,0,.19,0,.06,0,.11.01.16.03.11.03.19.08.24.16.05.08.08.17.08.28,0,.07,0,.14-.02.22m3.42-.32s-.03-.02-.06-.03c-.02-.01-.05-.02-.08-.02-.03,0-.06-.01-.1-.02-.03,0-.07,0-.1,0-.08,0-.17.02-.25.06-.08.04-.16.08-.24.15-.08.06-.15.13-.22.22-.07.08-.13.17-.18.27l.08-.49s0-.04,0-.06c0-.02-.02-.03-.05-.04-.02-.01-.06-.02-.1-.02-.04,0-.1,0-.17,0s-.12,0-.17.01c-.05,0-.09.01-.12.03-.03.01-.05.02-.07.04-.01.02-.02.04-.03.06l-.54,3.06s0,.04,0,.06c0,.02.03.03.06.04.03.01.07.02.12.02.05,0,.12,0,.2,0s.15,0,.2-.01c.06,0,.1-.02.13-.03.03-.01.06-.03.08-.04.02-.02.03-.04.03-.06l.24-1.37c.02-.14.07-.28.12-.41.06-.13.13-.24.2-.34.08-.1.16-.18.24-.24.08-.06.16-.09.24-.09.04,0,.07,0,.1.01.03,0,.06.01.08.02.02,0,.05.02.07.02s.04.01.06.01c.02,0,.05-.02.07-.05.02-.03.04-.07.05-.12.02-.05.03-.1.04-.16.01-.06.02-.11.03-.17,0-.05.01-.1.02-.14,0-.04,0-.07,0-.09,0-.03,0-.05-.02-.06m2.99.41c-.05-.1-.12-.19-.21-.27-.09-.08-.22-.14-.36-.19-.15-.05-.32-.07-.52-.06-.23,0-.44.04-.62.12-.18.07-.34.17-.48.29-.14.12-.25.26-.35.41-.1.16-.17.32-.23.49-.06.17-.1.34-.13.52-.02.17-.04.34-.03.49,0,.2.03.37.09.51.06.14.14.26.25.35.11.09.24.16.4.2.16.04.35.06.56.06.13,0,.26-.01.38-.03.12-.02.24-.04.34-.06.1-.02.18-.05.26-.08.07-.03.12-.06.15-.08.02-.02.05-.06.06-.1.02-.04.03-.09.04-.14.01-.05.02-.1.03-.15,0-.05,0-.09,0-.13,0-.03,0-.06-.02-.07-.01-.02-.03-.02-.06-.02s-.07.01-.13.03c-.06.02-.13.05-.22.08-.09.03-.19.05-.31.08-.12.02-.25.04-.39.04-.21,0-.36-.04-.45-.13-.09-.09-.14-.23-.15-.41,0-.04,0-.09,0-.14,0-.05,0-.1.02-.16h.31c.32-.01.6-.04.84-.1.23-.05.43-.13.58-.23.15-.1.26-.21.33-.34.07-.13.1-.28.1-.44,0-.11-.03-.22-.07-.32m-.8.58c-.03.06-.08.11-.16.15-.07.04-.17.08-.29.1-.12.03-.27.04-.45.04h-.28c.03-.1.06-.2.11-.3.05-.1.1-.18.17-.25.07-.07.14-.13.23-.17.09-.04.19-.06.3-.07.13,0,.24.03.31.08.07.06.11.13.11.23,0,.06-.01.12-.05.18m.74-2.38s.03-.05.04-.07c0-.02,0-.04-.03-.06-.03-.02-.07-.03-.13-.04-.06,0-.14-.01-.24-.01-.07,0-.14,0-.19,0s-.09.01-.13.02c-.03.01-.06.03-.08.04-.02.02-.04.04-.06.07l-.49.79s-.03.06-.04.08c0,.02,0,.04.02.06.02.01.05.02.09.03.04,0,.11,0,.18,0,.06,0,.12,0,.16,0,.04,0,.08-.01.11-.02.03,0,.05-.02.07-.04.02-.01.03-.03.05-.06l.67-.8Zm3.62,1.9c-.03-.14-.09-.26-.16-.37-.07-.1-.17-.18-.29-.24-.12-.06-.26-.09-.43-.08-.13,0-.25.03-.37.07s-.23.1-.33.17c-.1.07-.19.14-.26.23-.07.08-.12.16-.15.24l.08-.5s0-.04,0-.06c0-.02-.03-.03-.05-.04-.03-.01-.06-.02-.1-.02-.04,0-.1,0-.17,0-.14,0-.24.01-.3.04-.06.02-.09.06-.1.1l-.76,4.27s0,.04,0,.06c0,.02.03.03.06.05.03.01.07.02.12.03.05,0,.12,0,.2,0s.15,0,.21-.01c.06,0,.1-.02.13-.03.03-.01.06-.03.08-.05.02-.02.03-.04.03-.06l.24-1.38s.09.1.14.14c.05.04.11.08.18.11.07.03.14.06.22.07.08.02.16.02.25.02.2,0,.37-.04.53-.11.16-.07.29-.17.41-.29.12-.12.22-.26.3-.42.08-.16.15-.32.2-.49.05-.17.09-.34.11-.51.02-.17.03-.33.03-.48,0-.16-.02-.31-.06-.45m-.82.86c-.01.11-.03.22-.06.33-.03.11-.06.22-.11.32-.04.1-.1.19-.16.27-.06.08-.13.14-.2.19-.08.05-.16.07-.25.07-.12,0-.23-.03-.33-.09-.1-.06-.18-.15-.26-.28l.09-.47c.03-.16.07-.31.14-.44.07-.14.14-.26.23-.37.09-.1.18-.19.28-.25.1-.06.2-.09.3-.1.06,0,.12,0,.16.03.04.02.08.05.11.1.03.04.05.1.06.16.01.06.02.13.02.21,0,.1,0,.2-.02.31m4.54-1.44s0-.04,0-.06c0-.02-.03-.03-.05-.04-.03-.01-.06-.02-.11-.02-.04,0-.1,0-.17,0-.14,0-.23.01-.29.04-.06.02-.09.06-.1.1l-.05.27c-.11-.15-.24-.26-.38-.34-.14-.08-.31-.11-.49-.11-.2,0-.37.04-.53.12-.16.07-.29.17-.41.3-.12.12-.22.26-.3.42-.08.16-.15.32-.21.49-.05.17-.09.34-.11.51-.02.17-.03.33-.03.47,0,.15.02.3.05.44.03.14.09.26.16.37.07.11.17.19.29.25.12.06.27.09.45.09.13,0,.25-.03.37-.07.12-.05.23-.1.33-.17.1-.07.18-.14.26-.22s.12-.16.16-.23l-.09.49s0,.05,0,.06c0,.02.03.03.05.04.03,0,.06.02.11.02.04,0,.1,0,.17,0,.14,0,.23-.01.29-.04.06-.02.1-.06.1-.1l.54-3.06Zm-1.08,1.39c-.03.16-.08.31-.14.45-.07.14-.14.26-.23.37-.09.11-.18.19-.28.25-.1.06-.2.09-.3.1-.07,0-.13-.01-.17-.04-.04-.03-.08-.07-.11-.11-.03-.05-.05-.1-.06-.16-.01-.06-.02-.13-.02-.19,0-.09,0-.2.02-.31.01-.11.03-.22.06-.33.03-.11.06-.21.11-.31.04-.1.1-.19.15-.27.06-.08.13-.14.2-.19.08-.05.16-.07.26-.07.12,0,.23.03.33.09.1.06.18.15.26.28l-.09.46Zm4.44-1.56c-.05-.02-.15-.02-.29-.02-.1,0-.17,0-.23.01s-.11.02-.14.03c-.04.01-.06.02-.08.04-.02.02-.03.04-.03.06-.05.19-.1.38-.17.56-.06.19-.13.37-.2.55-.07.18-.15.36-.24.54-.09.18-.19.35-.29.52h0s-.34-2.13-.34-2.13c0-.03-.01-.06-.02-.09-.01-.02-.03-.04-.06-.05-.03-.01-.07-.02-.12-.02-.05,0-.12,0-.22,0-.08,0-.15,0-.21.01-.06,0-.1.02-.14.03-.03.01-.06.03-.07.06-.01.03-.02.06-.02.1,0,.02,0,.05,0,.08s0,.06.01.09l.54,2.92-.74,1.03s-.04.07-.04.1c0,.03.01.05.04.07.03.02.07.03.13.04.06,0,.14,0,.23,0,.08,0,.16,0,.22-.01.06,0,.12-.02.16-.03.05-.01.08-.03.11-.05.03-.02.05-.05.07-.07l.79-1.2c.18-.27.34-.54.48-.79.14-.26.26-.5.37-.74s.21-.47.29-.7c.08-.22.16-.44.23-.65.01-.04.02-.08.03-.11,0-.04,0-.07,0-.1,0-.05-.03-.08-.08-.1m3.13.41c-.05-.1-.12-.19-.21-.27-.09-.08-.22-.14-.36-.19-.15-.05-.32-.07-.52-.06-.23,0-.44.04-.62.12-.18.07-.34.17-.48.29-.14.12-.25.26-.35.41-.1.16-.17.32-.23.49-.06.17-.1.34-.13.52-.02.17-.04.34-.03.49,0,.2.03.37.09.51.06.14.14.26.25.35.11.09.24.16.4.2.16.04.35.06.56.06.13,0,.26-.01.38-.03.12-.02.24-.04.34-.06.1-.02.18-.05.26-.08.07-.03.12-.06.15-.08.02-.02.05-.06.06-.1.02-.04.03-.09.04-.14.01-.05.02-.1.03-.15,0-.05,0-.09,0-.13,0-.03,0-.06-.02-.07-.01-.02-.03-.02-.06-.02s-.07.01-.13.03c-.06.02-.13.05-.22.08-.09.03-.19.05-.31.08-.12.02-.25.04-.39.04-.21,0-.36-.04-.45-.13-.09-.09-.14-.23-.15-.41,0-.04,0-.09,0-.14,0-.05,0-.1.02-.16h.31c.32-.01.6-.04.84-.1.23-.05.43-.13.58-.23.15-.1.26-.21.33-.34.07-.13.1-.28.1-.44,0-.11-.03-.22-.07-.32m-.79.58c-.03.06-.08.11-.16.15-.07.04-.17.08-.29.1-.12.03-.27.04-.45.04h-.28c.03-.1.06-.2.11-.3.05-.1.1-.18.17-.25.07-.07.14-.13.23-.17.09-.04.19-.06.3-.07.13,0,.24.03.31.08.07.06.11.13.11.23,0,.06-.01.12-.05.18m.74-2.38s.03-.05.04-.07c0-.02,0-.04-.03-.06-.03-.02-.07-.03-.13-.04-.06,0-.14-.01-.24-.01-.07,0-.14,0-.19,0s-.09.01-.13.02c-.03.01-.06.03-.08.04-.02.02-.04.04-.06.07l-.49.79s-.03.06-.04.08c0,.02,0,.04.02.06.02.01.05.02.09.03.04,0,.11,0,.18,0,.06,0,.12,0,.16,0,.04,0,.08-.01.11-.02.03,0,.05-.02.07-.04.02-.02.03-.03.05-.06l.67-.8Zm3.41,1.74c-.05-.1-.12-.19-.21-.27-.09-.08-.22-.14-.36-.19-.15-.05-.32-.07-.52-.06-.23,0-.44.04-.62.12-.18.07-.34.17-.48.29-.14.12-.25.26-.35.41-.1.16-.17.32-.23.49-.06.17-.1.34-.13.52-.02.17-.04.34-.03.49,0,.2.03.37.09.51.06.14.14.26.25.35.11.09.24.16.4.2.16.04.35.06.56.06.13,0,.26-.01.38-.03.12-.02.24-.04.34-.06.1-.02.18-.05.26-.08.07-.03.12-.06.15-.08.02-.02.04-.06.06-.1.02-.04.03-.09.04-.14.01-.05.02-.1.03-.15,0-.05,0-.09,0-.13,0-.03,0-.06-.02-.07-.01-.02-.03-.02-.06-.02s-.07.01-.13.03c-.06.02-.13.05-.22.08-.09.03-.19.05-.31.08-.12.02-.25.04-.39.04-.21,0-.36-.04-.45-.13-.09-.09-.14-.23-.15-.41,0-.04,0-.09,0-.14,0-.05,0-.1.02-.16h.31c.32-.01.6-.04.84-.1.23-.05.43-.13.58-.23.15-.1.26-.21.33-.34.07-.13.1-.28.1-.44,0-.11-.03-.22-.07-.32m-.8.58c-.03.06-.09.11-.16.15-.07.04-.17.08-.29.1-.12.03-.27.04-.45.04h-.28c.03-.1.06-.2.11-.3.05-.1.1-.18.17-.25.07-.07.14-.13.23-.17.09-.04.19-.06.3-.07.13,0,.24.03.31.08.07.06.11.13.11.23,0,.06-.01.12-.05.18"/>
        <g>
          <path class="cls-8" d="m9.15,13.55c0-4.67,3.73-8.46,8.34-8.46h6.07c-1.7-1.26-3.8-2-6.07-2-5.7,0-10.32,4.68-10.32,10.46s4.62,10.46,10.32,10.46c2.27,0,4.36-.74,6.07-2h-6.07c-4.6,0-8.34-3.79-8.34-8.46"/>
          <path class="cls-5" d="m25.72,19.12h-8.15c-3.04,0-5.68-1.87-5.68-5.57,0-3.48,2.48-5.58,5.68-5.58h8.12l-1.39-1.75h-6.64c-4.2,0-7.47,2.76-7.47,7.33,0,4.87,3.48,7.32,7.47,7.32h6.68l1.37-1.75Z"/>
          <path class="cls-2" d="m17.28,15.92c-1.02,0-1.67-.5-1.89-1.49h12.18v-1.75h-12.18c.22-.94.83-1.49,1.89-1.49h11.26l-1.39-1.52h-9.67c-2.23,0-3.96,1.46-3.96,3.89,0,2.58,1.84,3.88,3.96,3.88h9.7l1.38-1.52h-11.29Z"/>
          <path class="cls-4" d="m30.35,14.82c.69,0,1.25-.57,1.25-1.27s-.56-1.27-1.25-1.27-1.25.57-1.25,1.27.56,1.27,1.25,1.27"/>
          <path class="cls-4" d="m7.16,13.55c0-5.77,4.62-10.45,10.31-10.46v-.04H5.8v21h11.67v-.04c-5.69,0-10.31-4.68-10.31-10.46"/>
        </g>
      </g>
    </g>
  </g>
</svg>