<?xml version="1.0" encoding="UTF-8"?>
<svg id="Calque_2" data-name="Calque 2" xmlns="http://www.w3.org/2000/svg" viewBox="0 0 106.1 133.3">
  <defs>
    <style>
      .cls-1 {
        fill: #b2b2b2;
      }

      .cls-2 {
        fill: #b23630;
      }

      .cls-3 {
        fill: #e30613;
      }

      .cls-4 {
        fill: #7c7c7b;
      }

      .cls-5 {
        fill: #7d7d7a;
      }

      .cls-6 {
        fill: none;
        stroke: #945e36;
        stroke-width: .23px;
      }

      .cls-7 {
        fill: #fff;
        stroke: #1d1d1b;
        stroke-miterlimit: 10;
        stroke-width: .3px;
      }

      .cls-8 {
        fill: #1d1d1b;
      }
    </style>
  </defs>
  <g id="Calque_1-2" data-name="Calque 1">
    <g>
      <path class="cls-7" d="m8.04.15C3.68.15.15,4.02.15,8.78v115.74c0,4.77,3.53,8.63,7.89,8.63h90.02c4.36,0,7.89-3.86,7.89-8.63V8.78c0-4.77-3.53-8.63-7.89-8.63H8.04Z"/>
      <g>
        <path class="cls-6" d="m83.53,88.57s3.23,3.74-.74,4.55m.02,4.79s4.72.69.66,4.73m4.34-4.62s-4.11.44-.79,4.62m-1.1-12.26s-.42,2.61,1.89,2.61m0,2.48h5.07m-10.07,0h-5.07m15.14-3.4h-4.96v6.88h4.96m-15.14-6.88h4.96v6.88h-4.96m1.34-10.33c-.71,0-1.29.59-1.29,1.32v11.32c0,.73.58,1.32,1.29,1.32h12.45c.71,0,1.29-.59,1.29-1.32v-11.32c0-.73-.58-1.32-1.29-1.32h-12.45Zm.45-1.04c-1.42,0-2.58,1.18-2.58,2.65v10.51c0,1.46,1.16,2.65,2.58,2.65h11.54c1.42,0,2.58-1.18,2.58-2.65v-10.51c0-1.46-1.16-2.65-2.58-2.65h-11.54Z"/>
        <path class="cls-2" d="m25.65,101.62c1.58-1.35,2.99-2.9,4.43-4.41.39-.47,0-1.15-.49-1.15-.1,0-.23.03-.33.1-.1.07-.13.13-.2.2-1.94,2.05-3.88,4.27-6.31,5.65-.82.5-1.94.98-2.92.98-1.35,0-2.27-.94-2.69-2.22-.36-1.04-.36-2.25-.2-3.33.59-3.6,2.76-9.22,6.41-10.71.43-.17.89-.27,1.35-.27s.89.1,1.28.27c.82.41,1.41,1.25,2.1,1.89.23.24.53.34.79.34.36,0,.69-.17.75-.57.07-.34-.2-.71-.56-.77-.07,0-.13,0-.2-.07-.79-.84-1.61-1.75-2.66-2.16-.46-.17-.98-.27-1.51-.27-4.93,0-8.05,7.1-8.9,11.28-.36,1.72-.43,3.6.26,5.22.66,1.51,2.1,2.73,3.78,2.73,2.04,0,4.3-1.45,5.81-2.73m12.88-3.97c.3-.24,1.71-1.25,2.07-1.38.36.44.56,1.01.99,1.35.36.3.82.47,1.25.57.82.14,1.74-.07,2.46-.47.16-.07.82-.44.95-.61.33-.44.03-1.11-.53-1.11-.26,0-1.12.61-1.38.71-.26.1-.56.17-.89.17-.49,0-1.02-.17-1.28-.54-.2-.34-.36-.71-.62-1.01-.16-.2-.39-.34-.66-.4-.56-.1-1.12.24-1.58.54-1.64,1.04-3.15,2.36-4.9,3.2-.52.27-1.12.47-1.71.47-.07-.03-.2,0-.2-.07,0-.2.23-.98.29-1.18.82-2.02,3.45-5.52,5.85-5.52.17,0,.33,0,.46.07.43.17.69.61,1.05.81.13.07.23.1.36.1.56,0,.92-.81.36-1.21-.36-.27-.69-.64-1.12-.84-.36-.2-.76-.24-1.18-.24-2.33,0-4.96,2.63-6.11,4.51-.59,1.01-1.71,3.2-1.12,4.21.3.54.79.71,1.38.71,1.81,0,4.37-1.82,5.78-2.83m10.81.37c.36-.3.59-1.78.72-2.26.33-1.18,1.22-3.53,2.43-4.07.26-.1.56-.13.82-.13.16,0,.33,0,.49-.03.56-.24.56-1.04,0-1.28-.23-.07-1.02,0-1.25.03-1.77.34-2.96,2.63-3.48,4.21-.17-.81-.36-1.62-.56-2.42-.07-.24-.07-.5-.1-.77-.07-.37-.36-.54-.66-.54s-.62.24-.66.67c0,.57.2,1.11.33,1.68.26,1.04.43,2.12.59,3.23.07.44.1.88.23,1.28.1.34.39.57.69.57.13,0,.26-.07.39-.17m11.63,8.35c0-.14-.07-.3-.1-.44-.53-1.62-.66-3.33-.72-5.05-.13-2.25-.1-4.51-.03-6.8,1.38-.07,2.73-.07,4.11-.1.92-.03.92-1.38,0-1.35-1.35.03-2.69.03-4.07.1.03-.84.26-5.72.26-6.56,0-.54-.17-1.48-.85-1.48-.49,0-.79.5-.56,1.01.16.27.1.64.1.98-.03.77-.23,5.39-.26,6.13-.36.03-2.63.27-3.02.27-.13,0-.26-.03-.39,0-.69.14-.69,1.21,0,1.31.53.1,2.89-.2,3.38-.24-.07,2.22-.1,4.44.03,6.67.03,1.04.3,5.15.99,5.99.13.17.33.24.49.24.33,0,.66-.27.66-.67m11.53-7.44c.46-.54-.1-1.31-.72-1.08-.66.27-1.38.37-2.14.37-.69,0-1.45-.1-2.04-.54-.26-.24-.46-.54-.52-.91-.03-.27.03-.57.13-.88,1.61.14,3.32-.57,4.63-1.51.46-.34.85-.88.99-1.45.16-.74-.3-1.51-1.02-1.72-.2-.07-.39-.07-.59-.07-1.71,0-3.58,1.62-4.5,2.96-.62-.07-.99.64-.69,1.25-.26.64-.36,1.41-.13,2.09.49,1.51,2.2,2.12,3.65,2.12.69,0,2.56-.13,2.96-.64m-1.74-6.36c.2-.07.62-.17.79,0-.03.4-.46.71-.79.94-.82.51-1.77.91-2.73,1.04.72-.88,1.64-1.68,2.73-1.99"/>
        <path class="cls-5" d="m24.57,112.59c-.13-.35-.31-.65-.54-.9-.23-.25-.51-.46-.84-.63-.33-.17-.7-.29-1.11-.36-.27-.05-.54-.09-.82-.1-.28-.02-.59-.03-.94-.02l-2.85.05c-.3,0-.54.09-.74.26-.2.17-.32.41-.38.73l-2.14,12.07c-.02.08-.01.14.02.19.03.05.1.09.19.13.1.03.22.06.39.07.16.01.37.02.62.02s.47-.02.64-.04c.17-.02.32-.05.43-.08.11-.04.2-.08.25-.14.05-.06.08-.12.1-.19l.76-4.29,1.36-.02c.77-.01,1.44-.11,2.01-.28.57-.17,1.07-.4,1.5-.69.43-.29.79-.61,1.08-.98.29-.37.53-.75.71-1.16.18-.41.31-.82.39-1.24.08-.42.11-.82.11-1.21,0-.44-.08-.83-.2-1.18m-2.63,2.2c-.04.23-.1.46-.18.69-.09.23-.2.45-.34.66-.14.21-.31.39-.51.55-.2.15-.44.28-.71.38-.27.1-.6.15-.98.16l-1.21.02.79-4.55,1.17-.02c.21,0,.41,0,.59.01.17.01.33.04.47.09.32.09.56.26.72.49.16.24.24.52.25.85,0,.21-.01.44-.05.67m10.33-.97s-.1-.06-.17-.09c-.07-.03-.15-.05-.24-.07-.09-.02-.19-.03-.29-.05-.1-.01-.21-.02-.31-.02-.25,0-.5.06-.75.17-.25.11-.5.26-.73.44-.23.19-.46.41-.66.66-.21.25-.39.53-.54.83l.26-1.47c.01-.07,0-.13-.02-.18-.02-.05-.07-.09-.15-.12-.07-.03-.18-.05-.31-.07-.13-.02-.3-.02-.51-.02s-.37.02-.52.03c-.15.02-.26.05-.35.08-.09.03-.16.07-.21.13-.04.05-.07.11-.09.18l-1.64,9.25c-.01.07,0,.13.02.18.03.05.09.09.18.13.09.03.21.06.37.07.16.01.36.02.61.02s.45-.02.62-.04c.17-.02.3-.05.41-.08.1-.04.18-.08.23-.13.05-.05.08-.11.09-.18l.74-4.15c.07-.43.2-.84.38-1.23.18-.39.38-.74.61-1.03.23-.3.47-.54.73-.72.26-.18.5-.28.73-.28.11,0,.22,0,.3.03.09.02.17.05.24.07.07.02.14.05.2.07s.12.03.18.03c.08,0,.14-.05.2-.15.06-.1.12-.22.17-.38.05-.15.09-.32.13-.49.04-.18.07-.35.09-.51.02-.16.04-.31.05-.43.01-.12.02-.21.02-.26,0-.09-.02-.16-.06-.2m9.05,1.24c-.14-.31-.36-.59-.64-.83-.29-.24-.65-.43-1.09-.57-.44-.14-.97-.21-1.58-.2-.7.01-1.33.13-1.88.35-.55.22-1.03.51-1.44.88-.41.36-.76.78-1.05,1.25-.29.47-.52.97-.7,1.48-.18.52-.31,1.04-.38,1.57-.07.53-.11,1.02-.1,1.48.01.6.1,1.12.27,1.55.17.44.42.79.74,1.07.33.28.73.48,1.22.61.48.13,1.05.19,1.69.18.39,0,.77-.03,1.15-.09.38-.05.71-.11,1.01-.19.3-.07.56-.15.77-.24.21-.09.36-.17.44-.26.07-.07.14-.17.19-.3.05-.13.1-.27.13-.42.03-.15.06-.3.08-.45.02-.15.03-.29.02-.4,0-.1-.02-.18-.05-.23-.03-.05-.09-.07-.17-.07s-.21.04-.38.1c-.17.07-.39.14-.66.23-.26.08-.57.16-.92.23-.35.07-.75.11-1.19.12-.62.01-1.08-.12-1.37-.4-.29-.28-.43-.69-.44-1.25,0-.13,0-.27.01-.43.01-.15.03-.31.05-.47l.93-.02c.98-.02,1.82-.11,2.53-.27.71-.16,1.29-.39,1.74-.69.46-.29.79-.64,1-1.04.21-.4.31-.85.3-1.34,0-.33-.08-.65-.22-.96m-2.4,1.74c-.1.17-.26.32-.48.45-.22.13-.51.23-.87.31-.36.08-.81.12-1.35.13h-.85c.08-.31.19-.62.33-.9.14-.29.31-.54.51-.75.2-.21.43-.38.69-.51.26-.13.56-.2.9-.2.4,0,.71.08.93.26.22.18.32.41.33.68,0,.19-.04.37-.14.54m2.22-7.18c.06-.08.09-.15.11-.21.01-.07-.02-.12-.1-.17-.08-.05-.2-.09-.38-.12-.17-.03-.42-.04-.73-.03-.22,0-.41.01-.56.03s-.28.04-.39.07c-.1.03-.19.08-.26.13-.06.06-.13.12-.18.2l-1.49,2.39c-.06.09-.1.17-.11.24-.02.07,0,.12.06.17.05.04.15.08.28.09.13.02.32.03.55.02.19,0,.36-.01.48-.03.13-.02.23-.04.32-.07.09-.03.16-.07.21-.11.05-.05.11-.1.16-.17l2.01-2.43Zm10.94,5.74c-.1-.43-.27-.79-.49-1.11-.22-.31-.51-.56-.87-.73-.35-.18-.79-.26-1.31-.25-.39,0-.77.08-1.13.22s-.7.31-1,.52c-.3.21-.56.44-.77.68-.21.25-.37.49-.47.72l.26-1.5c.01-.07,0-.13-.02-.18-.03-.05-.08-.09-.16-.12-.08-.03-.18-.05-.31-.07-.13-.02-.3-.02-.51-.02-.42,0-.71.04-.9.11-.18.06-.28.17-.31.32l-2.3,12.92c-.01.07,0,.13.02.18.03.06.09.1.18.14.09.04.21.06.37.08.15.02.36.03.6.02s.46-.02.62-.04c.17-.02.3-.05.41-.09.1-.04.18-.09.23-.14.05-.06.08-.12.09-.19l.72-4.18c.12.15.27.29.43.42.16.13.34.24.55.34.2.1.42.17.65.22.24.05.49.07.76.07.59-.01,1.12-.13,1.59-.35.47-.22.88-.51,1.24-.88.36-.36.67-.78.92-1.26.25-.48.46-.97.62-1.48.16-.51.28-1.03.35-1.55.07-.52.1-1,.1-1.45,0-.49-.06-.95-.17-1.37m-2.49,2.59c-.04.34-.1.67-.19,1-.08.33-.19.65-.32.96-.13.31-.29.57-.47.81-.18.23-.39.42-.61.56-.23.14-.48.21-.76.22-.38,0-.71-.08-1-.27-.29-.18-.55-.46-.79-.84l.26-1.41c.08-.48.22-.92.42-1.35.2-.42.43-.79.7-1.11.26-.32.55-.57.85-.76.3-.19.6-.28.91-.29.19,0,.35.03.48.1.13.07.24.17.33.3.08.13.15.29.19.49.04.19.06.4.07.64,0,.29-.01.61-.05.95m13.73-4.34c.01-.07,0-.13-.02-.18-.03-.05-.08-.09-.16-.12-.08-.03-.18-.05-.32-.07-.13-.01-.3-.02-.5-.02-.41,0-.71.04-.89.11-.18.06-.29.17-.31.32l-.15.82c-.33-.45-.71-.79-1.15-1.02-.43-.23-.93-.34-1.49-.33-.6.01-1.13.13-1.6.35-.47.22-.88.52-1.24.89-.36.37-.67.79-.92,1.27-.25.48-.46.97-.62,1.48-.16.51-.27,1.03-.35,1.54-.07.51-.1.99-.1,1.42,0,.46.06.9.16,1.32.1.42.26.79.48,1.11.22.32.51.58.87.76.36.19.81.27,1.35.27.39,0,.77-.08,1.13-.21.36-.14.69-.31.99-.51.3-.21.56-.43.77-.68s.37-.48.47-.71l-.26,1.48c-.01.08,0,.14.02.19.02.05.08.09.16.12.08.03.19.05.32.06.13.01.3.01.51.01.41,0,.71-.04.89-.11.18-.06.29-.17.31-.32l1.64-9.26Zm-3.26,4.22c-.09.48-.23.93-.42,1.35-.2.42-.43.79-.69,1.11-.26.32-.55.57-.85.76-.31.19-.61.28-.9.29-.21,0-.38-.04-.52-.12-.14-.08-.25-.2-.33-.34-.08-.14-.14-.31-.18-.49-.03-.19-.05-.38-.06-.59,0-.28.01-.59.05-.93.04-.34.1-.67.19-.99.08-.33.19-.65.33-.95.13-.3.29-.58.47-.81.18-.23.38-.42.61-.56.23-.14.49-.22.77-.22.38,0,.71.08,1,.27.29.18.55.46.8.84l-.26,1.4Zm13.41-4.71c-.16-.05-.46-.07-.89-.07-.29,0-.52.02-.71.04s-.33.05-.44.08c-.11.03-.19.07-.23.13-.05.05-.08.11-.09.18-.15.57-.32,1.14-.5,1.71-.18.56-.38,1.12-.6,1.67-.22.55-.46,1.09-.73,1.63-.27.54-.56,1.06-.89,1.58h-.02s-1.04-6.44-1.04-6.44c-.02-.1-.04-.19-.07-.26-.03-.07-.09-.12-.17-.15-.08-.03-.2-.05-.36-.06-.16,0-.37,0-.65,0-.25,0-.46.02-.63.04-.17.02-.31.05-.42.09-.1.04-.18.1-.22.18-.04.08-.06.18-.06.3,0,.07,0,.15.02.25s.03.19.04.28l1.63,8.83-2.23,3.13c-.08.12-.13.22-.14.3,0,.08.03.15.11.2.08.05.21.09.39.11.18.02.41.03.7.03.26,0,.48-.02.67-.04.2-.02.36-.06.5-.1.14-.04.25-.09.34-.15.09-.06.16-.14.22-.22l2.4-3.62c.55-.83,1.04-1.63,1.46-2.4.42-.77.8-1.52,1.13-2.24.33-.72.62-1.42.88-2.1.25-.68.49-1.34.71-1.97.04-.12.07-.23.09-.34.02-.11.03-.21.02-.3,0-.14-.08-.24-.25-.29m9.47,1.23c-.14-.31-.36-.59-.64-.83-.29-.24-.65-.43-1.09-.57-.44-.14-.97-.21-1.58-.2-.71.01-1.33.13-1.88.35-.55.22-1.03.51-1.44.88-.41.36-.76.78-1.05,1.25-.29.47-.52.97-.7,1.48-.18.52-.31,1.04-.38,1.57-.07.53-.11,1.02-.1,1.48.01.6.1,1.12.27,1.55.17.44.42.79.74,1.07.33.28.73.48,1.21.61.48.13,1.05.19,1.69.18.39,0,.77-.03,1.15-.09.37-.05.71-.11,1.02-.19.3-.07.56-.15.77-.24.21-.09.36-.17.44-.26.07-.07.14-.17.19-.3.06-.13.1-.27.13-.42.03-.15.06-.3.08-.45.02-.15.02-.29.02-.4,0-.1-.02-.18-.05-.23-.03-.05-.09-.07-.17-.07s-.21.04-.38.1c-.17.07-.39.14-.66.23-.26.08-.57.16-.92.23-.35.07-.75.11-1.19.12-.62.01-1.08-.12-1.37-.4-.29-.28-.44-.69-.44-1.25,0-.13,0-.27.01-.43,0-.15.03-.31.05-.47l.93-.02c.98-.02,1.82-.11,2.53-.27.71-.16,1.29-.39,1.74-.69.45-.29.79-.64,1-1.04.21-.4.31-.85.31-1.34,0-.33-.08-.65-.22-.96m-2.4,1.74c-.1.17-.26.32-.48.45-.22.13-.51.23-.87.31-.36.08-.81.12-1.35.13h-.85c.08-.31.19-.62.33-.9.14-.29.31-.54.51-.75.2-.21.43-.38.69-.51.26-.13.56-.2.9-.2.4,0,.71.08.93.26.22.18.32.41.33.68,0,.19-.04.37-.14.54m2.22-7.18c.06-.08.09-.15.11-.21.01-.07-.02-.12-.1-.17-.08-.05-.21-.09-.38-.12-.18-.03-.42-.04-.73-.03-.22,0-.41.01-.56.03s-.28.04-.39.07c-.1.03-.19.08-.26.13-.07.06-.13.12-.18.2l-1.49,2.39c-.06.09-.1.17-.11.24-.01.07,0,.12.06.17.06.04.15.08.28.09.13.02.32.03.55.02.19,0,.36-.01.48-.03.13-.02.23-.04.32-.07.09-.03.16-.07.21-.11.05-.05.11-.1.16-.17l2.01-2.43Zm10.31,5.26c-.14-.31-.36-.59-.64-.83-.29-.24-.65-.43-1.09-.57-.44-.14-.97-.21-1.58-.2-.7.01-1.33.13-1.88.35-.55.22-1.03.51-1.44.88-.41.36-.76.78-1.05,1.25-.29.47-.52.97-.7,1.48-.18.52-.31,1.04-.38,1.57-.07.53-.11,1.02-.1,1.48.01.6.1,1.12.27,1.55.17.44.42.79.74,1.07.33.28.73.48,1.21.61.48.13,1.05.19,1.69.18.39,0,.77-.03,1.15-.09.38-.05.71-.11,1.01-.19.3-.07.56-.15.77-.24.21-.09.36-.17.44-.26.07-.07.14-.17.19-.3.05-.13.1-.27.13-.42.03-.15.06-.3.08-.45.02-.15.03-.29.02-.4,0-.1-.02-.18-.05-.23-.03-.05-.09-.07-.17-.07s-.21.04-.38.1c-.17.07-.39.14-.66.23-.26.08-.57.16-.92.23-.35.07-.75.11-1.19.12-.63.01-1.08-.12-1.37-.4-.29-.28-.44-.69-.44-1.25,0-.13,0-.27.01-.43.01-.15.03-.31.05-.47l.93-.02c.98-.02,1.82-.11,2.53-.27.71-.16,1.29-.39,1.74-.69.46-.29.79-.64,1-1.04.21-.4.31-.85.3-1.34,0-.33-.08-.65-.22-.96m-2.4,1.74c-.1.17-.26.32-.48.45-.22.13-.51.23-.87.31-.36.08-.81.12-1.35.13h-.85c.08-.31.19-.62.33-.9.14-.29.31-.54.51-.75.2-.21.43-.38.69-.51.26-.13.56-.2.9-.2.4,0,.71.08.93.26.21.18.32.41.33.68,0,.19-.04.37-.14.54"/>
        <g>
          <path class="cls-8" d="m27.66,40.96c0-14.12,11.28-25.57,25.2-25.57h18.34c-5.14-3.81-11.48-6.05-18.34-6.05-17.22,0-31.19,14.15-31.19,31.62s13.97,31.61,31.19,31.61c6.86,0,13.19-2.25,18.34-6.05h-18.34c-13.92,0-25.2-11.46-25.2-25.57"/>
          <path class="cls-4" d="m77.76,57.8h-24.63c-9.18,0-17.17-5.65-17.17-16.84,0-10.52,7.51-16.85,17.17-16.85h24.56l-4.2-5.3h-20.07c-12.7,0-22.58,8.33-22.58,22.16,0,14.72,10.51,22.14,22.58,22.14h20.2l4.14-5.29Z"/>
          <path class="cls-1" d="m52.23,48.11c-3.09,0-5.04-1.51-5.71-4.5h36.83v-5.3h-36.83c.66-2.85,2.5-4.51,5.71-4.51h34.05l-4.2-4.58h-29.24c-6.74,0-11.98,4.42-11.98,11.75,0,7.81,5.57,11.74,11.98,11.74h29.33l4.17-4.59h-34.11Z"/>
          <path class="cls-3" d="m91.75,44.79c2.09,0,3.78-1.72,3.78-3.83s-1.69-3.84-3.78-3.84-3.78,1.71-3.78,3.84,1.69,3.83,3.78,3.83"/>
          <path class="cls-3" d="m21.66,40.96c0-17.45,13.95-31.6,31.16-31.62v-.12H17.53v63.48h35.29v-.12c-17.21-.02-31.16-14.16-31.16-31.61"/>
        </g>
      </g>
    </g>
  </g>
</svg>