<?xml version="1.0" encoding="UTF-8"?>
<svg id="Calque_2" data-name="Calque 2" xmlns="http://www.w3.org/2000/svg" viewBox="0 0 145.19 182.41">
  <defs>
    <style>
      .cls-1 {
        fill: #fff;
        stroke: #1d1d1b;
        stroke-miterlimit: 10;
        stroke-width: .41px;
      }

      .cls-2 {
        fill: #b2b2b2;
      }

      .cls-3 {
        fill: #b23630;
      }

      .cls-4 {
        fill: none;
        stroke: #945e36;
        stroke-width: .32px;
      }

      .cls-5 {
        fill: #e30613;
      }

      .cls-6 {
        fill: #7c7c7b;
      }

      .cls-7 {
        fill: #7d7d7a;
      }

      .cls-8 {
        fill: #1d1d1b;
      }
    </style>
  </defs>
  <g id="Calque_1-2" data-name="Calque 1">
    <g>
      <path class="cls-1" d="m11,.21C5.04.21.21,5.49.21,12.02v158.38c0,6.52,4.83,11.81,10.79,11.81h123.19c5.96,0,10.79-5.29,10.79-11.81V12.02c0-6.52-4.83-11.81-10.79-11.81H11Z"/>
      <g>
        <path class="cls-4" d="m114.3,121.2s4.42,5.11-1.01,6.22m.02,6.56s6.46.95.9,6.48m5.93-6.32s-5.63.6-1.08,6.32m-1.5-16.77s-.57,3.57,2.58,3.57m0,3.39h6.94m-13.78,0h-6.94m20.71-4.66h-6.78v9.41h6.78m-20.71-9.41h6.78v9.41h-6.78m1.84-14.13c-.98,0-1.77.81-1.77,1.81v15.49c0,1,.79,1.81,1.77,1.81h17.04c.98,0,1.77-.81,1.77-1.81v-15.49c0-1-.79-1.81-1.77-1.81h-17.04Zm.62-1.43c-1.95,0-3.53,1.62-3.53,3.62v14.39c0,2,1.58,3.62,3.53,3.62h15.8c1.95,0,3.53-1.62,3.53-3.62v-14.39c0-2-1.58-3.62-3.53-3.62h-15.8Z"/>
        <path class="cls-3" d="m35.1,139.06c2.16-1.84,4.09-3.96,6.07-6.03.54-.65,0-1.57-.67-1.57-.13,0-.32.05-.45.14-.13.09-.18.18-.27.28-2.65,2.81-5.3,5.85-8.63,7.74-1.12.69-2.65,1.34-4,1.34-1.84,0-3.1-1.29-3.69-3.04-.5-1.43-.5-3.09-.27-4.56.81-4.93,3.78-12.62,8.77-14.65.58-.23,1.21-.37,1.84-.37s1.21.14,1.75.37c1.12.55,1.93,1.71,2.88,2.58.32.32.72.46,1.08.46.49,0,.94-.23,1.03-.78.09-.46-.27-.97-.77-1.06-.09,0-.18,0-.27-.09-1.08-1.15-2.2-2.4-3.64-2.95-.63-.23-1.35-.37-2.07-.37-6.74,0-11.01,9.72-12.18,15.43-.49,2.35-.58,4.93.36,7.14.9,2.07,2.88,3.73,5.17,3.73,2.79,0,5.89-1.98,7.96-3.73m17.62-5.44c.4-.32,2.34-1.71,2.83-1.89.49.6.76,1.38,1.35,1.84.49.41,1.12.64,1.71.78,1.12.19,2.38-.09,3.37-.65.22-.09,1.12-.6,1.3-.83.45-.6.04-1.52-.72-1.52-.36,0-1.53.83-1.89.97-.36.14-.77.23-1.21.23-.67,0-1.39-.23-1.75-.74-.27-.46-.5-.97-.85-1.38-.22-.28-.54-.46-.9-.55-.76-.14-1.53.32-2.16.74-2.25,1.43-4.31,3.23-6.7,4.38-.72.37-1.53.65-2.34.65-.09-.05-.27,0-.27-.09,0-.28.31-1.34.4-1.61,1.12-2.76,4.72-7.55,8-7.55.23,0,.45,0,.63.09.58.23.95.83,1.44,1.11.18.09.32.14.5.14.77,0,1.26-1.11.49-1.66-.49-.37-.94-.88-1.53-1.15-.5-.28-1.03-.32-1.62-.32-3.19,0-6.79,3.59-8.36,6.17-.81,1.38-2.34,4.38-1.53,5.76.41.74,1.08.97,1.89.97,2.47,0,5.98-2.49,7.91-3.87m14.79.51c.49-.42.81-2.44.99-3.09.45-1.61,1.66-4.84,3.33-5.57.36-.14.77-.18,1.12-.18.22,0,.45,0,.67-.05.77-.32.77-1.43,0-1.75-.32-.09-1.39,0-1.71.05-2.43.46-4.04,3.59-4.76,5.76-.23-1.11-.49-2.21-.77-3.32-.09-.32-.09-.69-.13-1.06-.09-.51-.49-.74-.9-.74s-.85.32-.9.92c0,.78.27,1.52.45,2.3.36,1.43.58,2.9.81,4.42.09.6.13,1.2.32,1.75.13.46.54.78.94.78.18,0,.36-.09.54-.23m15.91,11.43c0-.19-.09-.42-.13-.6-.72-2.21-.9-4.56-.99-6.91-.18-3.09-.13-6.17-.05-9.3,1.89-.09,3.73-.09,5.62-.14,1.26-.05,1.26-1.89,0-1.84-1.84.05-3.69.05-5.57.14.05-1.15.36-7.83.36-8.98,0-.74-.23-2.03-1.17-2.03-.67,0-1.08.69-.76,1.38.22.37.13.88.13,1.34-.05,1.06-.32,7.37-.36,8.38-.49.05-3.6.37-4.14.37-.18,0-.36-.05-.54,0-.94.19-.94,1.66,0,1.8.72.14,3.96-.28,4.63-.32-.09,3.04-.13,6.08.05,9.12.05,1.43.4,7.05,1.35,8.2.18.23.45.32.67.32.45,0,.9-.37.9-.92m15.78-10.18c.63-.74-.13-1.8-.99-1.47-.9.37-1.89.51-2.92.51-.94,0-1.98-.14-2.79-.74-.36-.32-.63-.74-.72-1.25-.05-.37.04-.78.18-1.2,2.2.19,4.54-.78,6.34-2.07.63-.46,1.17-1.2,1.35-1.98.22-1.01-.4-2.07-1.39-2.35-.27-.09-.54-.09-.81-.09-2.34,0-4.9,2.21-6.16,4.05-.85-.09-1.35.88-.94,1.71-.36.88-.49,1.93-.18,2.86.67,2.07,3.01,2.9,4.99,2.9.95,0,3.51-.18,4.05-.87m-2.38-8.71c.27-.09.85-.23,1.08,0-.05.55-.63.97-1.08,1.29-1.12.69-2.43,1.25-3.73,1.43.99-1.2,2.25-2.3,3.73-2.72"/>
        <path class="cls-7" d="m33.62,154.06c-.17-.47-.42-.88-.74-1.23-.32-.35-.7-.63-1.15-.86-.45-.23-.96-.39-1.52-.5-.37-.07-.74-.12-1.12-.14-.38-.03-.81-.04-1.28-.03l-3.9.07c-.41,0-.74.12-1.02.35-.27.23-.44.56-.52,1l-2.93,16.51c-.03.11-.02.19.03.26.05.07.14.13.26.17.13.04.31.08.53.1.22.02.51.03.85.02s.64-.02.88-.05c.24-.03.43-.07.59-.11.15-.05.27-.11.34-.19.07-.08.12-.16.13-.26l1.04-5.87,1.86-.03c1.06-.02,1.98-.14,2.75-.38.78-.23,1.46-.55,2.05-.94.59-.39,1.08-.84,1.48-1.34.4-.5.73-1.03.97-1.59.25-.55.42-1.12.53-1.7.11-.58.15-1.13.15-1.66-.01-.6-.1-1.14-.28-1.61m-3.6,3.02c-.05.32-.13.63-.25.94-.12.31-.27.61-.47.9-.19.29-.43.53-.7.75-.28.21-.6.38-.97.52-.37.13-.82.2-1.34.21l-1.66.03,1.08-6.22,1.6-.03c.29,0,.56,0,.8.02.24.02.45.06.65.12.44.12.77.35.99.68.22.33.33.71.34,1.17,0,.29-.02.6-.07.91m14.14-1.32c-.06-.05-.13-.09-.23-.13-.1-.04-.21-.07-.33-.1-.13-.02-.26-.05-.4-.06-.14-.02-.28-.02-.42-.02-.34,0-.68.08-1.03.23-.35.15-.68.35-1,.6-.32.26-.62.55-.91.9-.28.34-.53.72-.75,1.13l.35-2.01c.02-.09.01-.18-.02-.25-.03-.07-.1-.12-.2-.17-.1-.04-.24-.07-.42-.09-.18-.02-.41-.03-.7-.02s-.51.02-.71.05c-.2.03-.36.06-.48.11-.12.04-.22.1-.28.17-.06.07-.1.16-.12.25l-2.24,12.66c-.02.09,0,.18.03.25.04.07.12.13.24.17.12.04.29.08.51.1.22.02.5.03.83.02s.61-.02.84-.05c.23-.03.41-.07.56-.11.14-.05.25-.11.31-.18.07-.07.11-.16.13-.25l1.01-5.68c.1-.59.27-1.15.51-1.68.24-.54.52-1.01.84-1.41.31-.41.65-.74.99-.99.35-.25.68-.38.99-.38.16,0,.3.01.42.04.12.03.23.06.33.09.1.03.2.06.28.09s.17.05.25.04c.1,0,.19-.07.28-.2.09-.13.16-.31.23-.51.06-.21.12-.43.17-.67.05-.24.09-.47.12-.7.03-.23.06-.42.07-.59.02-.17.02-.29.02-.35,0-.12-.03-.21-.09-.27m12.38,1.7c-.2-.43-.49-.8-.88-1.13-.39-.33-.89-.59-1.5-.78-.6-.19-1.33-.28-2.16-.27-.96.02-1.82.18-2.57.48-.75.3-1.41.7-1.97,1.2-.57.49-1.05,1.07-1.44,1.71-.39.65-.71,1.32-.96,2.03-.25.71-.42,1.42-.52,2.14-.1.72-.15,1.4-.14,2.03.01.82.14,1.53.37,2.12.23.6.57,1.08,1.02,1.46.45.38,1,.66,1.66.84.66.18,1.43.26,2.31.24.53,0,1.06-.05,1.57-.12.51-.07.98-.16,1.39-.26.41-.1.76-.21,1.06-.33.29-.12.49-.23.6-.35.1-.09.19-.23.26-.41.07-.18.14-.37.18-.58.05-.2.08-.41.11-.62.03-.21.04-.39.03-.55,0-.14-.03-.24-.07-.31-.05-.07-.12-.1-.24-.09s-.28.05-.52.14c-.24.09-.54.2-.9.31-.36.11-.78.22-1.26.32-.48.1-1.02.15-1.63.16-.85.01-1.48-.17-1.87-.55-.39-.38-.59-.95-.61-1.71,0-.18,0-.37.02-.59.01-.21.04-.43.07-.64l1.27-.02c1.34-.02,2.5-.15,3.46-.37.97-.22,1.76-.54,2.38-.94.62-.4,1.08-.87,1.37-1.42.29-.55.43-1.16.42-1.84,0-.45-.11-.89-.3-1.32m-3.29,2.39c-.13.23-.35.44-.65.61-.3.18-.7.32-1.19.42-.49.11-1.11.17-1.84.18l-1.16.02c.11-.44.27-.86.45-1.26.19-.4.42-.74.69-1.03.27-.29.59-.53.95-.7.36-.18.77-.27,1.23-.28.55,0,.97.11,1.27.35.29.25.44.56.45.93,0,.26-.06.51-.19.74m3.04-9.82c.08-.1.13-.2.15-.29.02-.09-.03-.17-.14-.24-.11-.07-.28-.12-.52-.16-.24-.04-.57-.05-.99-.05-.3,0-.56.02-.77.04s-.39.06-.53.1c-.14.04-.26.1-.35.18-.09.08-.17.17-.24.27l-2.04,3.27c-.08.12-.13.23-.15.33-.02.09,0,.17.08.23.07.06.2.1.39.13.18.03.44.03.76.03.27,0,.49-.02.66-.04.17-.02.32-.05.44-.09.12-.04.21-.09.29-.16.07-.06.14-.14.22-.24l2.76-3.33Zm14.97,7.85c-.14-.58-.37-1.09-.67-1.52-.31-.43-.7-.76-1.19-1-.49-.24-1.08-.36-1.79-.34-.54,0-1.05.11-1.55.3s-.95.43-1.37.71c-.41.29-.77.6-1.06.94-.29.34-.5.67-.64.98l.35-2.05c.02-.09,0-.18-.03-.25-.04-.07-.11-.12-.22-.17-.11-.04-.25-.07-.43-.09-.18-.02-.41-.03-.7-.02-.57,0-.98.06-1.23.15-.25.09-.39.23-.42.43l-3.14,17.68c-.02.09,0,.18.03.25.04.08.12.14.24.19.13.05.29.09.51.11.21.03.49.04.83.03s.62-.03.85-.06c.23-.03.41-.07.56-.13.14-.05.25-.12.31-.2.07-.08.11-.16.13-.26l.99-5.71c.17.21.36.4.59.58.22.18.47.33.75.47.27.13.57.23.9.3.32.07.67.1,1.04.09.81-.01,1.54-.17,2.18-.47.64-.3,1.21-.7,1.7-1.2.49-.5.91-1.07,1.26-1.72.35-.65.63-1.33.85-2.03.22-.7.38-1.41.48-2.11.1-.71.14-1.37.13-1.98-.01-.67-.09-1.29-.23-1.88m-3.4,3.54c-.05.46-.14.91-.25,1.37-.11.45-.26.89-.44,1.31-.18.42-.4.79-.64,1.11-.25.32-.53.58-.84.77-.31.19-.66.29-1.04.3-.51,0-.97-.11-1.37-.37-.39-.25-.76-.63-1.09-1.15l.35-1.93c.11-.65.3-1.27.57-1.84.28-.57.59-1.08.95-1.51.36-.43.75-.78,1.16-1.04.41-.26.83-.39,1.24-.4.26,0,.48.04.66.13.18.09.33.23.45.41.12.18.2.4.26.67.06.26.09.55.09.87,0,.4-.01.84-.07,1.29m18.78-5.94c.02-.09,0-.18-.03-.25-.04-.07-.11-.12-.22-.17-.11-.04-.25-.07-.44-.09-.18-.02-.41-.03-.69-.02-.56,0-.97.06-1.22.15-.25.09-.39.23-.43.43l-.2,1.12c-.45-.61-.97-1.08-1.57-1.39-.59-.31-1.27-.46-2.04-.45-.82.01-1.55.18-2.19.48-.64.31-1.21.71-1.7,1.22-.49.51-.91,1.09-1.26,1.74-.35.65-.63,1.33-.85,2.03-.22.7-.38,1.4-.47,2.11-.1.7-.14,1.35-.13,1.95.01.63.08,1.23.22,1.81.13.57.35,1.08.65,1.52.3.44.7.79,1.19,1.05.49.26,1.11.38,1.84.36.53,0,1.05-.11,1.55-.29.5-.19.95-.42,1.36-.7.41-.28.76-.59,1.06-.93.3-.34.51-.66.65-.97l-.35,2.03c-.02.1,0,.19.03.26.03.07.11.12.22.17.11.04.26.07.44.08.18.02.41.02.7.02.56,0,.97-.06,1.22-.15.25-.09.39-.23.43-.43l2.25-12.67Zm-4.46,5.77c-.12.65-.31,1.27-.58,1.84-.27.58-.59,1.08-.95,1.51-.36.44-.75.78-1.17,1.04-.42.26-.83.39-1.23.4-.29,0-.52-.05-.71-.17-.19-.11-.34-.27-.45-.47-.11-.2-.19-.42-.24-.67-.04-.25-.07-.52-.08-.8,0-.39.02-.81.07-1.27.05-.46.14-.91.25-1.36.12-.45.27-.88.45-1.3.18-.42.39-.79.64-1.11.24-.32.52-.58.84-.77.32-.19.67-.3,1.06-.3.51,0,.97.12,1.36.37.4.25.76.64,1.09,1.15l-.35,1.91Zm18.35-6.45c-.22-.07-.63-.1-1.21-.09-.4,0-.72.02-.97.05s-.45.06-.6.11c-.15.04-.26.1-.32.17-.06.07-.1.16-.12.25-.21.78-.43,1.56-.68,2.34-.25.77-.52,1.54-.82,2.29-.3.76-.63,1.5-1,2.23-.36.73-.77,1.45-1.22,2.17h-.03s-1.42-8.81-1.42-8.81c-.02-.14-.05-.26-.1-.35-.04-.09-.12-.16-.23-.21-.11-.04-.27-.07-.49-.08-.22,0-.51-.01-.89,0-.34,0-.63.02-.87.05-.24.03-.43.07-.57.13-.14.06-.24.14-.3.25-.06.1-.09.24-.08.41,0,.09.01.21.03.34s.04.26.06.38l2.24,12.09-3.06,4.28c-.12.16-.18.3-.19.41,0,.11.04.21.16.28.11.07.29.12.53.15.24.03.56.04.96.03.35,0,.66-.03.92-.06.27-.03.49-.08.68-.13.19-.05.34-.12.46-.21.12-.08.22-.19.31-.31l3.28-4.95c.75-1.13,1.42-2.23,2-3.28.58-1.06,1.09-2.08,1.55-3.06.45-.99.85-1.95,1.2-2.88.35-.93.67-1.83.97-2.7.05-.16.09-.32.12-.47.02-.15.04-.29.03-.41,0-.2-.12-.33-.34-.4m12.96,1.68c-.19-.43-.49-.8-.88-1.13-.39-.33-.89-.59-1.49-.78-.61-.19-1.33-.28-2.16-.27-.97.02-1.82.18-2.57.48-.75.3-1.41.7-1.97,1.2-.57.49-1.05,1.07-1.44,1.71-.39.65-.71,1.32-.96,2.03-.25.71-.42,1.42-.52,2.14-.1.72-.15,1.4-.14,2.03.01.82.14,1.53.37,2.12.23.6.57,1.08,1.02,1.46.45.38,1,.66,1.66.84.66.18,1.43.26,2.31.24.53,0,1.06-.05,1.57-.12.51-.07.98-.16,1.39-.26.41-.1.76-.21,1.06-.33.29-.12.49-.23.6-.35.1-.09.19-.23.26-.41.08-.18.14-.37.18-.58.05-.2.08-.41.11-.62.02-.21.03-.39.03-.55,0-.14-.03-.24-.07-.31-.05-.07-.12-.1-.24-.09s-.28.05-.52.14c-.24.09-.54.2-.9.31-.36.11-.78.22-1.26.32-.48.1-1.02.15-1.63.16-.85.01-1.48-.17-1.87-.55-.39-.38-.6-.95-.61-1.71,0-.18,0-.38.02-.59.01-.21.04-.43.07-.64l1.27-.02c1.34-.02,2.5-.15,3.46-.37.97-.22,1.76-.54,2.38-.94.62-.4,1.08-.87,1.37-1.42.29-.55.43-1.16.42-1.84,0-.45-.11-.89-.31-1.32m-3.29,2.39c-.13.23-.35.44-.65.61-.3.18-.7.32-1.19.42-.49.11-1.11.17-1.84.18l-1.16.02c.11-.44.26-.86.45-1.26.19-.4.42-.74.69-1.03.27-.29.59-.53.95-.7.36-.18.77-.27,1.23-.28.55,0,.97.11,1.27.35.29.25.44.56.45.93,0,.26-.06.51-.19.74m3.04-9.82c.08-.1.13-.2.15-.29.02-.09-.03-.17-.13-.24-.11-.07-.28-.12-.52-.16-.24-.04-.57-.05-.99-.05-.3,0-.56.02-.77.04s-.39.06-.53.1c-.14.04-.26.1-.35.18-.09.08-.17.17-.24.27l-2.04,3.27c-.08.12-.13.23-.15.33-.02.09,0,.17.08.23.08.06.2.1.39.13.18.03.44.03.76.03.27,0,.49-.02.66-.04.17-.02.32-.05.44-.09.12-.04.22-.09.29-.16.07-.06.14-.14.22-.24l2.75-3.33Zm14.11,7.2c-.2-.43-.49-.8-.88-1.13-.39-.33-.89-.59-1.5-.78-.61-.19-1.33-.28-2.16-.27-.96.02-1.82.18-2.57.48-.75.3-1.41.7-1.97,1.2-.57.49-1.05,1.07-1.44,1.71-.39.65-.71,1.32-.96,2.03-.24.71-.42,1.42-.52,2.14-.1.72-.15,1.4-.14,2.03.01.82.14,1.53.37,2.12.23.6.57,1.08,1.02,1.46.45.38,1,.66,1.66.84.66.18,1.43.26,2.31.24.53,0,1.06-.05,1.57-.12.51-.07.98-.16,1.39-.26.41-.1.76-.21,1.06-.33.29-.12.49-.23.6-.35.1-.09.19-.23.26-.41.07-.18.14-.37.18-.58.05-.2.08-.41.11-.62.02-.21.04-.39.03-.55,0-.14-.03-.24-.07-.31-.05-.07-.13-.1-.24-.09s-.28.05-.52.14c-.24.09-.54.2-.9.31-.36.11-.78.22-1.26.32-.48.1-1.03.15-1.63.16-.86.01-1.48-.17-1.87-.55-.39-.38-.6-.95-.61-1.71,0-.18,0-.37.02-.59.01-.21.04-.43.07-.64l1.27-.02c1.34-.02,2.5-.15,3.46-.37.97-.22,1.76-.54,2.38-.94.62-.4,1.08-.87,1.37-1.42.29-.55.43-1.16.42-1.84,0-.45-.11-.89-.3-1.32m-3.29,2.39c-.13.23-.35.44-.65.61-.3.18-.7.32-1.19.42-.49.11-1.11.17-1.84.18l-1.16.02c.11-.44.26-.86.45-1.26.19-.4.42-.74.69-1.03.27-.29.59-.53.95-.7.36-.18.77-.27,1.23-.28.55,0,.97.11,1.27.35.29.25.44.56.45.93,0,.26-.06.51-.19.74"/>
        <g>
          <path class="cls-8" d="m37.85,56.05c0-19.32,15.44-34.99,34.49-34.99h25.09c-7.04-5.22-15.71-8.29-25.09-8.29-23.57,0-42.68,19.36-42.68,43.27s19.11,43.26,42.68,43.26c9.38,0,18.05-3.07,25.09-8.28h-25.09c-19.04-.01-34.49-15.68-34.49-34.99"/>
          <path class="cls-6" d="m106.41,79.1h-33.71c-12.56,0-23.5-7.73-23.5-23.05,0-14.39,10.27-23.06,23.5-23.06h33.61l-5.75-7.26h-27.46c-17.38,0-30.89,11.4-30.89,30.32,0,20.14,14.38,30.29,30.89,30.29h27.65l5.67-7.24Z"/>
          <path class="cls-2" d="m71.47,65.83c-4.22,0-6.89-2.06-7.82-6.16h50.4v-7.25h-50.4c.9-3.9,3.43-6.17,7.82-6.17h46.59l-5.74-6.27h-40.01c-9.22,0-16.39,6.05-16.39,16.08,0,10.68,7.63,16.06,16.39,16.06h40.13l5.71-6.29h-46.68Z"/>
          <path class="cls-5" d="m125.55,61.29c2.86,0,5.17-2.36,5.17-5.24s-2.31-5.26-5.17-5.26-5.18,2.35-5.18,5.26,2.32,5.24,5.18,5.24"/>
          <path class="cls-5" d="m29.64,56.05c0-23.88,19.09-43.24,42.64-43.27v-.17H23.98v86.86h48.29v-.17c-23.54-.03-42.64-19.37-42.64-43.26"/>
        </g>
      </g>
    </g>
  </g>
</svg>